<?xml version="1.0" encoding="UTF-8" standalone="no"?>
<!-- Created with Inkscape (http://www.inkscape.org/) -->

<svg
   width="1920"
   height="1080"
   viewBox="0 0 507.99999 285.75001"
   version="1.1"
   id="svg5"
   inkscape:version="1.1 (c68e22c387, 2021-05-23)"
   sodipodi:docname="BrickFloorSpritesheet.svg"
   xmlns:inkscape="http://www.inkscape.org/namespaces/inkscape"
   xmlns:sodipodi="http://sodipodi.sourceforge.net/DTD/sodipodi-0.dtd"
   xmlns="http://www.w3.org/2000/svg"
   xmlns:svg="http://www.w3.org/2000/svg">
  <sodipodi:namedview
     id="namedview7"
     pagecolor="#505050"
     bordercolor="#eeeeee"
     borderopacity="1"
     inkscape:pageshadow="0"
     inkscape:pageopacity="0"
     inkscape:pagecheckerboard="0"
     inkscape:document-units="px"
     showgrid="false"
     inkscape:zoom="1.5358305"
     inkscape:cx="317.09228"
     inkscape:cy="209.98411"
     inkscape:window-width="1920"
     inkscape:window-height="1051"
     inkscape:window-x="-9"
     inkscape:window-y="-9"
     inkscape:window-maximized="1"
     inkscape:current-layer="layer1"
     units="px"
     width="1920px" />
  <defs
     id="defs2" />
  <g
     inkscape:label="Layer 1"
     inkscape:groupmode="layer"
     id="layer1">
    <path
       id="rect33494"
       style="fill:#31283b;stroke:none;stroke-width:0.187088"
       d="M 93.944649,53.814642 V 114.26005 H 221.94459 V 53.814642 Z" />
    <rect
       style="fill:#3b1c37;stroke:none;stroke-width:0.14863"
       id="rect33740"
       width="127.99995"
       height="7.9141865"
       x="93.944649"
       y="66.940147"
       ry="0" />
    <rect
       style="fill:#010101;stroke:#010101;stroke-width:0.264583"
       id="rect248"
       width="127.99994"
       height="60.445408"
       x="93.944649"
       y="53.814644" />
    <path
       style="fill:#40477a;stroke:#40477a;stroke-width:0.264583px;stroke-linecap:butt;stroke-linejoin:miter;stroke-opacity:1"
       d="m 373.39242,65.446646 c 0,0 -0.89583,5.444879 -2.29898,5.925401 -1.40314,0.480522 -2.30819,0.278351 -2.30819,0.278351 0,0 -54.96049,-0.06446 -56.80966,-0.240261 -1.84916,-0.1758 -2.47097,-2.70147 -2.47097,-2.70147 0,0 -1.019,1.869347 -2.64027,2.426049 -1.62127,0.556702 -57.56168,0.577212 -59.42061,-0.0088 -1.85893,-0.586005 -1.71647,-5.679282 -1.71647,-5.679282 z"
       id="path37052" />
    <g
       id="g3033"
       transform="translate(-0.85271174,-0.9745277)"
       inkscape:export-filename="D:\Coding Projects\CSG-Zucchini\Assets\Sprites\Miscellanious\BrickFloorTiles.png"
       inkscape:export-xdpi="96"
       inkscape:export-ydpi="96">
      <rect
         style="fill:#010101;stroke-width:0.326084"
         id="rect1116"
         width="33.866669"
         height="30.529181"
         x="1.4594058"
         y="4.5943055"
         ry="0" />
      <g
         id="g4512"
         transform="matrix(0.52916666,0,0,0.52916666,0.66628049,0.57089504)">
        <rect
           style="fill:#010101;stroke:#010101;stroke-width:0.167421"
           id="rect13483"
           width="63.832581"
           height="20.059296"
           x="1.4988195"
           y="1.2962309"
           ry="4.8030181" />
        <path
           style="fill:#715d87;stroke:none;stroke-width:0.198888px;stroke-linecap:butt;stroke-linejoin:miter;stroke-opacity:1"
           d="M 4.9385099,2.1133158 C 3.6566937,2.4105605 2.5712626,3.8638317 2.3947585,5.3963127 c -0.1387063,1.204306 0.2041922,8.4535603 0.2041922,8.4535603 0,0 -0.065759,3.454311 3.0940311,3.715953 3.1597899,0.261643 55.0973072,-0.336397 55.0973072,-0.336397 0,0 3.450507,0.607386 3.377825,-4.918265 -0.07269,-5.5256515 -0.266486,-8.3819207 -0.266486,-8.3819207 0,0 -0.06923,-2.7908585 -6.869863,-2.2426543 C 50.231126,2.2347931 8.1052358,0.91287279 4.9385099,2.1133158 Z"
           id="path14665"
           sodipodi:nodetypes="cscscscsc" />
        <path
           style="fill:#a689c7;stroke:none;stroke-width:0.198888px;stroke-linecap:butt;stroke-linejoin:miter;stroke-opacity:1"
           d="M 6.9665864,2.4061074 C 8.3682465,2.1756123 60.727995,2.047905 60.727995,2.047905 c 0,0 2.26342,0.4111546 2.651035,1.3393635 0.387622,0.9282097 -1.796199,0.2211499 -1.796199,0.2211499 0,0 -1.529714,-0.7382058 -3.000584,-0.7195184 C 57.11137,2.907595 6.8385348,3.3934978 6.8385348,3.3934978 c 0,0 -2.8310046,-0.2211514 0.1280516,-0.9873904 z"
           id="path13890" />
        <path
           style="fill:#715d87;stroke:#715d87;stroke-width:0.198888px;stroke-linecap:butt;stroke-linejoin:miter;stroke-opacity:1"
           d="m 15.272423,2.2009926 c 0.06669,0.01323 0.760676,0.047312 1.174053,0.3523994 0.228748,0.1688262 0.613834,0.7115008 -0.332823,0.8523652 -1.017699,0.1514356 -1.126942,0.525847 -1.126942,0.525847 0,0 5.783382,0.062767 5.76197,-0.00496 -0.02142,-0.067728 0.135617,-0.5329672 0.135617,-0.5329672 -0.783721,-0.00771 -1.249999,-1.1156518 0.204954,-1.280751 1.130614,-0.1282952 0.09483,-0.084795 0.09483,-0.084795 z"
           id="path17163"
           sodipodi:nodetypes="csscscscc" />
        <path
           id="path4430"
           style="fill:#66547a;stroke:none;stroke-width:0.198888px;stroke-linecap:butt;stroke-linejoin:miter;stroke-opacity:1"
           d="m 63.341497,2.8805184 c 0.562175,0.824185 0.789114,1.833753 -0.927074,2.307868 -1.222297,0.337672 -56.5751213,0.292761 -58.0843123,0.05426 -1.6368946,-0.258681 -1.4289649,-1.269453 -1.0624674,-1.970421 -0.4617629,0.595116 -0.7835845,1.349166 -0.8728153,2.1239 -0.1387062,1.204307 0.2041224,8.4537476 0.2041224,8.4537476 0,0 -0.065924,3.454411 3.0938679,3.716052 3.15979,0.261644 55.0974177,-0.336412 55.0974177,-0.336412 0,0 3.450251,0.607088 3.377569,-4.918562 -0.07269,-5.5256546 -0.26614,-8.3819186 -0.26614,-8.3819186 0,0 -0.01759,-0.508553 -0.560168,-1.048514 z" />
        <path
           style="fill:#1e223b;stroke:#1e223b;stroke-width:0.198888px;stroke-linecap:butt;stroke-linejoin:miter;stroke-opacity:1"
           d="m 15.203951,1.3388553 1.309874,0.5445674 0.836334,0.9927741 0.270418,1.9277318 c 0,0 -0.196185,1.1262042 -0.256141,1.1658505 -0.05996,0.039645 0.809417,1.3457221 0.76965,1.414551 -0.03976,0.068826 -0.330476,1.9076759 -0.402058,2.0238582 -0.07158,0.1161808 0.05078,1.8302727 0.05078,1.8302727 l 1.042514,1.7664 L 18.64178,11.61674 18.55123,10.218155 19.045567,8.456161 19.284197,7.0296719 18.825344,5.8540914 19.016838,4.7324703 19.54972,3.4820053 19.323351,2.7370109 c 0,0 0.305904,-0.6282626 0.360966,-0.6601979 0.05506,-0.031932 -1.593749,-0.760962 -1.593749,-0.760962 z"
           id="path16949" />
      </g>
    </g>
    <g
       id="g3303"
       inkscape:export-filename="D:\Coding Projects\CSG-Zucchini\Assets\Sprites\Miscellanious\BrickFloorTiles.png"
       inkscape:export-xdpi="96"
       inkscape:export-ydpi="96">
      <rect
         style="fill:#010101;stroke:#010101;stroke-width:0.251819"
         id="rect3215"
         width="33.599812"
         height="29.920658"
         x="131.5999"
         y="6.5717959" />
      <g
         id="g40609"
         transform="matrix(0.52916666,0,0,0.52916666,130.85889,-38.861146)">
        <rect
           style="fill:#010101;stroke:#010101;stroke-width:0.167421"
           id="rect19979"
           width="63.832581"
           height="20.059296"
           x="1.4003274"
           y="78.904793"
           ry="4.8030181" />
        <path
           style="fill:#715d87;stroke:none;stroke-width:0.198888px;stroke-linecap:butt;stroke-linejoin:miter;stroke-opacity:1"
           d="m 4.8400179,79.72188 c -1.2818162,0.297245 -2.3672473,1.750516 -2.5437514,3.282997 -0.1387063,1.204306 0.2041922,8.45356 0.2041922,8.45356 0,0 -0.065759,3.454311 3.0940311,3.715953 3.1597899,0.261643 55.0973072,-0.336397 55.0973072,-0.336397 0,0 3.450507,0.607386 3.377825,-4.918265 -0.07269,-5.525651 -0.266486,-8.381921 -0.266486,-8.381921 0,0 -0.06923,-2.790858 -6.869863,-2.242654 C 50.132634,79.843357 8.0067438,78.521437 4.8400179,79.72188 Z"
           id="path19981"
           sodipodi:nodetypes="cscscscsc" />
        <path
           id="path39065"
           style="fill:#66547a;stroke:none;stroke-width:0.198888px;stroke-linecap:butt;stroke-linejoin:miter;stroke-opacity:1"
           d="m 63.243168,80.489144 c 0.562171,0.824185 0.789112,1.833753 -0.927076,2.307867 C 61.093794,83.134683 5.7409741,83.089773 4.2317831,82.851272 2.594888,82.592592 2.8028177,81.58182 3.1693157,80.880851 2.7075529,81.475968 2.385731,82.230017 2.2965006,83.004752 c -0.1387063,1.204306 0.2041219,8.453747 0.2041219,8.453747 0,0 -0.065922,3.45441 3.0938679,3.716051 3.1597899,0.261644 55.0974116,-0.336412 55.0974116,-0.336412 0,0 3.450254,0.607089 3.37757,-4.918562 -0.07269,-5.525653 -0.266133,-8.381918 -0.266133,-8.381918 0,0 -0.0176,-0.508553 -0.560171,-1.048514 z" />
        <path
           style="fill:#a689c7;stroke:none;stroke-width:0.198888px;stroke-linecap:butt;stroke-linejoin:miter;stroke-opacity:1"
           d="m 6.8680944,80.014671 c 1.4016601,-0.230495 53.7614086,-0.358202 53.7614086,-0.358202 0,0 2.26342,0.411155 2.651035,1.339363 0.387622,0.92821 -1.796199,0.22115 -1.796199,0.22115 0,0 -1.529714,-0.738205 -3.000584,-0.719518 -1.470877,0.0187 -51.7437122,0.504598 -51.7437122,0.504598 0,0 -2.8310046,-0.221152 0.1280516,-0.987391 z"
           id="path19983" />
      </g>
    </g>
    <g
       id="g3191"
       inkscape:export-filename="D:\Coding Projects\CSG-Zucchini\Assets\Sprites\Miscellanious\BrickFloorTiles.png"
       inkscape:export-xdpi="96"
       inkscape:export-ydpi="96">
      <rect
         style="fill:#010101;stroke:#010101;stroke-width:0.250543"
         id="rect3057"
         width="33.604561"
         height="30.70447"
         x="90.164925"
         y="3.5529234" />
      <g
         id="g4438"
         transform="matrix(0.52916666,0,0,0.52916666,89.471154,-13.93468)">
        <rect
           style="fill:#010101;stroke:#010101;stroke-width:0.167421"
           id="rect20001"
           width="63.832581"
           height="20.059296"
           x="1.3110664"
           y="27.566961"
           ry="4.8030181" />
        <path
           style="fill:#715d87;stroke:none;stroke-width:0.198888px;stroke-linecap:butt;stroke-linejoin:miter;stroke-opacity:1"
           d="m 4.7507569,28.384046 c -1.2818162,0.297244 -2.3672473,1.750516 -2.5437514,3.282997 -0.1387063,1.204306 0.2041922,8.453559 0.2041922,8.453559 0,0 -0.065759,3.454312 3.0940311,3.715954 3.1597899,0.261643 55.0973072,-0.336397 55.0973072,-0.336397 0,0 3.450507,0.607386 3.377825,-4.918265 -0.07269,-5.525652 -0.266486,-8.381921 -0.266486,-8.381921 0,0 -0.06923,-2.790858 -6.869863,-2.242654 -6.800639,0.548204 -48.9265292,-0.773716 -52.0932551,0.426727 z"
           id="path20003"
           sodipodi:nodetypes="cscscscsc" />
        <path
           style="fill:#a689c7;stroke:none;stroke-width:0.198888px;stroke-linecap:butt;stroke-linejoin:miter;stroke-opacity:1"
           d="m 6.7788334,28.676837 c 1.4016601,-0.230495 53.7614086,-0.358202 53.7614086,-0.358202 0,0 2.26342,0.411154 2.651035,1.339363 0.387622,0.92821 -1.796199,0.22115 -1.796199,0.22115 0,0 -1.529714,-0.738205 -3.000584,-0.719518 -1.470877,0.0187 -51.7437122,0.504598 -51.7437122,0.504598 0,0 -2.8310046,-0.221152 0.1280516,-0.987391 z"
           id="path20005" />
        <path
           id="path3478"
           style="fill:#66547a;stroke:none;stroke-width:0.198888px;stroke-linecap:butt;stroke-linejoin:miter;stroke-opacity:1"
           d="m 63.153797,29.151165 c 0.562175,0.824185 0.789114,1.833753 -0.927074,2.307868 -1.222297,0.337672 -56.575121,0.292761 -58.084312,0.05426 -1.6368946,-0.258681 -1.4289649,-1.269453 -1.0624674,-1.970421 -0.4617629,0.595116 -0.7835845,1.349166 -0.8728153,2.1239 -0.1387062,1.204307 0.2041224,8.453747 0.2041224,8.453747 0,0 -0.065924,3.454411 3.0938679,3.716052 3.15979,0.261644 55.0974174,-0.336412 55.0974174,-0.336412 0,0 3.450251,0.607088 3.377569,-4.918562 -0.07269,-5.525654 -0.26614,-8.381918 -0.26614,-8.381918 0,0 -0.01759,-0.508553 -0.560168,-1.048514 z" />
        <path
           style="fill:#715d87;stroke:#715d87;stroke-width:0.198888px;stroke-linecap:butt;stroke-linejoin:miter;stroke-opacity:1"
           d="m 45.135228,28.226171 c 0.06669,0.01323 0.744157,0.0024 1.157534,0.307523 0.228748,0.168826 0.613834,0.711501 -0.332822,0.852365 -1.0177,0.151436 -1.126943,0.525847 -1.126943,0.525847 0,0 5.783382,0.06277 5.76197,-0.005 -0.02142,-0.06773 0.135617,-0.532967 0.135617,-0.532967 -0.733091,-0.0072 -1.304059,-0.837234 -0.169036,-1.097641 0.07839,-0.01799 0.461712,-0.05298 0.556308,-0.05261 1.207089,0.0047 0.334351,-0.0061 0.334351,-0.0061 z"
           id="path20009"
           sodipodi:nodetypes="csscscsscc" />
        <path
           style="fill:#1e223b;stroke:#1e223b;stroke-width:0.198888px;stroke-linecap:butt;stroke-linejoin:miter;stroke-opacity:1"
           d="m 45.127242,27.631416 1.309873,0.544567 0.836335,0.992774 0.346385,1.241438 c 0,0 -0.87586,1.224616 -0.935817,1.264263 -0.05996,0.03964 0.827258,1.459155 0.78749,1.527984 -0.03976,0.06883 -0.330476,1.907675 -0.402057,2.023858 -0.07158,0.11618 0.05078,1.830273 0.05078,1.830273 l 1.042515,1.7664 -0.183542,-1.388122 -0.09055,-1.398584 0.494337,-1.761995 0.23863,-1.426489 -0.458852,-1.17558 0.883255,-1.192581 0.307282,-0.760477 -0.106662,-0.689573 c 0,0 0.305904,-0.628263 0.360966,-0.660198 0.05506,-0.03193 -1.593749,-0.760962 -1.593749,-0.760962 z"
           id="path20011"
           sodipodi:nodetypes="ccccsssccccccccccscc" />
      </g>
    </g>
    <path
       style="fill:#1e223b;stroke:#1e223b;stroke-width:0.264583px;stroke-linecap:butt;stroke-linejoin:miter;stroke-opacity:1"
       d="m 245.80117,61.559929 c 0,0 -0.37439,7.477387 2.37982,8.458941 2.75421,0.981554 56.05761,1.280414 58.01746,0.134781 1.95985,-1.145635 3.36139,-4.707006 3.36139,-4.707006 0,0 0.46065,3.28595 2.79163,4.566364 2.33099,1.280414 54.48844,1.714056 57.83842,0.527402 3.34998,-1.186653 3.40206,-8.40913 3.40206,-8.40913 z"
       id="path36153" />
    <g
       id="g33470"
       transform="matrix(0.75170183,0,0,0.75170183,155.45178,-12.225102)">
      <rect
         style="fill:#31283b;stroke:#1e223b;stroke-width:0.222722"
         id="rect33464"
         width="84.917419"
         height="26.685175"
         x="35.627426"
         y="26.239811"
         ry="6.3895254" />
      <path
         style="fill:#66547a;stroke:none;stroke-width:0.264583px;stroke-linecap:butt;stroke-linejoin:miter;stroke-opacity:1"
         d="m 40.203297,27.326791 c -1.705219,0.395429 -3.149184,2.328737 -3.38399,4.367419 -0.184523,1.602106 0.27164,11.245895 0.27164,11.245895 0,0 -0.08748,4.595321 4.116035,4.943388 4.203515,0.348067 73.296758,-0.447514 73.296758,-0.447514 0,0 4.59026,0.808014 4.49357,-6.542841 -0.0967,-7.350855 -0.35451,-11.150592 -0.35451,-11.150592 0,0 -0.0921,-3.71272 -9.13908,-2.983436 -9.04699,0.729284 -65.087681,-1.029286 -69.300423,0.567681 z"
         id="path33466"
         sodipodi:nodetypes="cscscscsc" />
      <path
         style="fill:#a689c7;stroke:none;stroke-width:0.264583px;stroke-linecap:butt;stroke-linejoin:miter;stroke-opacity:1"
         d="m 42.901277,27.716296 c 1.864649,-0.306631 71.519593,-0.476522 71.519593,-0.476522 0,0 3.01106,0.546965 3.52671,1.781775 0.51566,1.234811 -2.38951,0.294199 -2.38951,0.294199 0,0 -2.035,-0.982046 -3.99172,-0.957186 -1.95673,0.02487 -68.835422,0.671274 -68.835422,0.671274 0,0 -3.766127,-0.294201 0.170349,-1.31354 z"
         id="path33468" />
    </g>
    <g
       id="g3023"
       transform="translate(-0.64566663,-2.7299766)"
       inkscape:export-filename="D:\Coding Projects\CSG-Zucchini\Assets\Sprites\Miscellanious\BrickFloorTiles.png"
       inkscape:export-xdpi="96"
       inkscape:export-ydpi="96">
      <rect
         style="fill:#010101;stroke:#010101;stroke-width:0.0885934"
         id="rect21072"
         width="33.778072"
         height="10.61471"
         x="44.012619"
         y="3.8849058"
         ry="2.5415969" />
      <rect
         style="fill:#010101;stroke:#010101;stroke-width:0.247108"
         id="rect2116"
         width="33.604134"
         height="29.771545"
         x="44.011593"
         y="7.7164674"
         ry="0" />
      <path
         style="fill:#715d87;stroke:none;stroke-width:0.105245px;stroke-linecap:butt;stroke-linejoin:miter;stroke-opacity:1"
         d="m 45.832789,4.3172798 c -0.678295,0.157292 -1.252669,0.9263147 -1.346069,1.7372525 -0.0734,0.6372786 0.108052,4.4733417 0.108052,4.4733417 0,0 -0.0348,1.827907 1.637258,1.966359 1.672055,0.138453 29.155658,-0.17801 29.155658,-0.17801 0,0 1.825893,0.321408 1.787432,-2.602582 -0.03846,-2.9239904 -0.141015,-4.4354329 -0.141015,-4.4354329 0,0 -0.03663,-1.4768292 -3.635303,-1.1867379 C 69.800131,4.3815615 47.508514,3.6820454 45.832789,4.3172798 Z"
         id="path21074"
         sodipodi:nodetypes="cscscscsc" />
      <path
         id="path40580"
         style="fill:#66547a;stroke:none;stroke-width:0.105245px;stroke-linecap:butt;stroke-linejoin:miter;stroke-opacity:1"
         d="M 76.737731,4.7232139 C 77.035215,5.1593451 77.155304,5.6935748 76.247154,5.9444607 75.600355,6.1231455 46.309486,6.0993801 45.510872,5.9731733 44.644682,5.8362879 44.754712,5.3014211 44.94865,4.9304922 44.7043,5.2454077 44.534003,5.6444258 44.486785,6.0543892 44.413386,6.6916684 44.5948,10.52783 44.5948,10.52783 c 0,0 -0.03489,1.82796 1.637172,1.966411 1.672055,0.138454 29.155716,-0.178018 29.155716,-0.178018 0,0 1.825758,0.321251 1.787297,-2.6027388 -0.03847,-2.923992 -0.140832,-4.4354317 -0.140832,-4.4354317 0,0 -0.0093,-0.2691093 -0.296422,-0.5548386 z" />
      <path
         style="fill:#a689c7;stroke:none;stroke-width:0.105245px;stroke-linecap:butt;stroke-linejoin:miter;stroke-opacity:1"
         d="m 46.905979,4.4722154 c 0.741712,-0.1219703 28.448745,-0.1895488 28.448745,-0.1895488 0,0 1.197727,0.2175693 1.40284,0.7087465 0.205116,0.4911776 -0.950489,0.1170252 -0.950489,0.1170252 0,0 -0.809473,-0.3906339 -1.587809,-0.3807452 -0.778339,0.00989 -27.381048,0.2670164 -27.381048,0.2670164 0,0 -1.498073,-0.117026 0.06776,-0.5224941 z"
         id="path21076" />
      <path
         style="fill:#715d87;stroke:#715d87;stroke-width:0.105245px;stroke-linecap:butt;stroke-linejoin:miter;stroke-opacity:1"
         d="m 67.202905,4.2337379 c 0.03529,0.007 0.393783,0.00127 0.612529,0.1627309 0.121045,0.089337 0.324819,0.3765026 -0.176119,0.4510431 -0.538533,0.080135 -0.59634,0.2782608 -0.59634,0.2782608 0,0 3.060373,0.033216 3.049041,-0.00265 -0.01133,-0.03584 0.07176,-0.2820284 0.07176,-0.2820284 -0.387927,-0.00381 -0.690065,-0.4430363 -0.08945,-0.580835 0.04148,-0.00952 0.244322,-0.028035 0.294379,-0.027839 0.638751,0.00249 0.176927,-0.00323 0.176927,-0.00323 z"
         id="path21080"
         sodipodi:nodetypes="csscscsscc" />
      <path
         style="fill:#715d87;stroke:#715d87;stroke-width:0.105245px;stroke-linecap:butt;stroke-linejoin:miter;stroke-opacity:1"
         d="m 54.52146,4.3121688 c 0.03529,0.007 0.457653,-0.038285 0.676399,0.1231736 0.121046,0.089337 0.236016,0.5284936 -0.270435,0.5301589 -0.56051,0.00185 -0.524917,0.2461196 -0.524917,0.2461196 0,0 3.060373,0.033216 3.049043,-0.00265 -0.01133,-0.03584 0.05871,-0.2583349 0.05871,-0.2583349 -0.387927,-0.00381 -0.707463,-0.5151469 -0.106846,-0.6529457 0.04148,-0.00952 0.246791,-0.027353 0.293006,-0.046588 0.553119,-0.2302208 0.251556,0.00111 0.251556,0.00111 z"
         id="path21080-0"
         sodipodi:nodetypes="csscscsscc" />
      <path
         style="fill:#1e223b;stroke:none;stroke-width:0.105245px;stroke-linecap:butt;stroke-linejoin:miter;stroke-opacity:1"
         d="m 70.109592,3.9177867 c -0.05128,0.025548 -0.425797,0.3617897 -0.488522,0.4227746 -0.06272,0.060985 -0.111918,0.5268357 -0.111918,0.5268357 l 0.194732,0.5943171 0.331335,0.5905505 -0.06688,0.4357005 L 69.75969,6.9666218 69.74046,6.5334851 69.644261,6.0446917 69.121072,5.5222947 68.702631,4.8387452 68.332691,4.3941304 68.053405,4.1003302 67.664235,3.9041887 Z"
         id="path21197"
         sodipodi:nodetypes="csccccccccccccc" />
      <path
         style="fill:#1e223b;stroke:none;stroke-width:0.105245px;stroke-linecap:butt;stroke-linejoin:miter;stroke-opacity:1"
         d="m 55.269169,3.8792872 c -0.02198,0.00286 0.499281,0.3554037 0.499281,0.3554037 l 0.04258,0.2546541 -0.18932,0.2865892 -0.355746,0.5632879 -0.323717,0.7574359 0.104959,0.8030554 0.359223,0.7015353 -0.04898,-0.7061708 -0.04395,-0.4277381 0.01858,-0.373035 0.394139,-0.6888512 c 0,0 0.341512,-0.3333152 0.386537,-0.362821 l 0.799221,-0.5237427 -0.278764,0.037925 0.28707,-0.345513 0.215417,-0.1454579 0.202368,-0.1701816 z"
         id="path23236"
         sodipodi:nodetypes="ccccccccccccscccccc" />
      <path
         style="fill:none;stroke:#000000;stroke-width:0.140008px;stroke-linecap:butt;stroke-linejoin:miter;stroke-opacity:1"
         d="M 68.702629,4.8387447 Z"
         id="path1040" />
    </g>
    <g
       id="g4534"
       transform="translate(92.607791,-2.785162)"
       style="stroke:none">
      <rect
         style="fill:#010101;stroke:none;stroke-width:0.167421"
         id="rect4514"
         width="63.832581"
         height="20.059296"
         x="1.3367904"
         y="53.045151"
         ry="4.8030181" />
      <path
         style="fill:#715d87;stroke:none;stroke-width:0.198888px;stroke-linecap:butt;stroke-linejoin:miter;stroke-opacity:1"
         d="m 4.7764809,53.862236 c -1.2818162,0.297245 -2.3672473,1.750516 -2.5437514,3.282997 -0.1387063,1.204306 0.2041922,8.45356 0.2041922,8.45356 0,0 -0.065759,3.454311 3.0940311,3.715953 3.1597899,0.261643 55.0973072,-0.336397 55.0973072,-0.336397 0,0 3.450507,0.607386 3.377825,-4.918265 -0.07269,-5.525651 -0.266486,-8.381921 -0.266486,-8.381921 0,0 -0.06923,-2.790858 -6.869863,-2.242654 -6.800639,0.548204 -48.9265292,-0.773716 -52.0932551,0.426727 z"
         id="path4516"
         sodipodi:nodetypes="cscscscsc" />
      <path
         style="fill:#a689c7;stroke:none;stroke-width:0.198888px;stroke-linecap:butt;stroke-linejoin:miter;stroke-opacity:1"
         d="m 6.8045574,54.155027 c 1.4016601,-0.230495 53.7614086,-0.358202 53.7614086,-0.358202 0,0 2.26342,0.411155 2.651035,1.339363 0.387622,0.92821 -1.796199,0.22115 -1.796199,0.22115 0,0 -1.529714,-0.738205 -3.000584,-0.719518 -1.470877,0.0187 -51.7437122,0.504598 -51.7437122,0.504598 0,0 -2.8310046,-0.221152 0.1280516,-0.987391 z"
         id="path4518" />
      <path
         style="fill:#715d87;stroke:none;stroke-width:0.198888px;stroke-linecap:butt;stroke-linejoin:miter;stroke-opacity:1"
         d="m 45.160952,53.704361 c 0.06669,0.01323 0.744157,0.0024 1.157535,0.307523 0.228748,0.168826 0.613833,0.711501 -0.332823,0.852365 -1.0177,0.151436 -1.126942,0.525847 -1.126942,0.525847 0,0 5.783382,0.06277 5.761969,-0.005 -0.02142,-0.06773 0.135618,-0.532967 0.135618,-0.532967 -0.733091,-0.0072 -1.30406,-0.837234 -0.169036,-1.097641 0.07839,-0.01799 0.461711,-0.05298 0.556307,-0.05261 1.207089,0.0047 0.334351,-0.0061 0.334351,-0.0061 z"
         id="path4522"
         sodipodi:nodetypes="csscscsscc" />
      <path
         style="fill:#715d87;stroke:none;stroke-width:0.198888px;stroke-linecap:butt;stroke-linejoin:miter;stroke-opacity:1"
         d="m 21.196018,53.852577 c 0.06669,0.01323 0.864856,-0.07235 1.278233,0.232769 0.228749,0.168826 0.446016,0.998728 -0.511058,1.001875 -1.05923,0.0035 -0.991968,0.465108 -0.991968,0.465108 0,0 5.783382,0.06277 5.76197,-0.005 -0.02142,-0.06773 0.110958,-0.488192 0.110958,-0.488192 -0.733091,-0.0072 -1.336938,-0.973506 -0.201914,-1.233913 0.07839,-0.01799 0.466377,-0.05169 0.553712,-0.08804 1.045265,-0.435063 0.475382,0.0021 0.475382,0.0021 z"
         id="path4524"
         sodipodi:nodetypes="csscscsscc" />
      <path
         id="path4526"
         style="fill:#66547a;stroke:none;stroke-width:0.198888px;stroke-linecap:butt;stroke-linejoin:miter;stroke-opacity:1"
         d="m 63.179521,54.629355 c 0.562175,0.824185 0.789114,1.833753 -0.927074,2.307868 C 61.03015,57.274895 5.6773263,57.229984 4.1681353,56.991483 2.5312407,56.732802 2.7391704,55.72203 3.1056679,55.021062 c -0.4617629,0.595116 -0.7835845,1.349166 -0.8728153,2.1239 -0.1387062,1.204307 0.2041224,8.453747 0.2041224,8.453747 0,0 -0.065924,3.454411 3.0938679,3.716052 3.15979,0.261644 55.0974171,-0.336412 55.0974171,-0.336412 0,0 3.450251,0.607088 3.377569,-4.918562 -0.07269,-5.525654 -0.26614,-8.381918 -0.26614,-8.381918 0,0 -0.01759,-0.508553 -0.560168,-1.048514 z" />
      <path
         style="fill:#1e223b;stroke:none;stroke-width:0.198888px;stroke-linecap:butt;stroke-linejoin:miter;stroke-opacity:1"
         d="m 50.653905,53.107288 c -0.0969,0.04828 -0.804656,0.683697 -0.923191,0.798944 -0.118535,0.115248 -0.211499,0.995595 -0.211499,0.995595 l 0.367998,1.123119 0.626145,1.116001 -0.12639,0.823371 -0.394295,0.904548 -0.03634,-0.818526 -0.181794,-0.923704 -0.988704,-0.987207 -0.790754,-1.291747 -0.6991,-0.840217 -0.527785,-0.555213 -0.735438,-0.370661 z"
         id="path4528"
         sodipodi:nodetypes="csccccccccccccc" />
      <path
         style="fill:#1e223b;stroke:none;stroke-width:0.198888px;stroke-linecap:butt;stroke-linejoin:miter;stroke-opacity:1"
         d="m 22.60901,53.034533 c -0.04153,0.0054 0.943524,0.671629 0.943524,0.671629 l 0.08047,0.481236 -0.35777,0.541586 -0.672276,1.064481 -0.611748,1.431375 0.198347,1.517585 0.678846,1.325736 -0.09256,-1.334496 -0.08306,-0.808324 0.03512,-0.704948 0.744831,-1.301766 c 0,0 0.645377,-0.629887 0.730462,-0.685646 l 1.510339,-0.98975 -0.526798,0.07167 0.542495,-0.652938 0.407087,-0.274881 0.382427,-0.321603 z"
         id="path4530"
         sodipodi:nodetypes="ccccccccccccscccccc" />
      <path
         style="fill:none;stroke:none;stroke-width:0.264583px;stroke-linecap:butt;stroke-linejoin:miter;stroke-opacity:1"
         d="M 47.995076,54.847681 Z"
         id="path4532" />
    </g>
    <rect
       style="fill:#010101;stroke:#010101;stroke-width:0.167421"
       id="rect4616"
       width="63.832581"
       height="20.059296"
       x="157.77716"
       y="50.259991"
       ry="4.8030181" />
    <path
       style="fill:#715d87;stroke:none;stroke-width:0.198888px;stroke-linecap:butt;stroke-linejoin:miter;stroke-opacity:1"
       d="m 161.21685,51.077076 c -1.28182,0.297245 -2.36725,1.750516 -2.54375,3.282997 -0.13871,1.204306 0.20419,8.45356 0.20419,8.45356 0,0 -0.0658,3.454311 3.09403,3.715953 3.15979,0.261643 55.09731,-0.336397 55.09731,-0.336397 0,0 3.4505,0.607386 3.37782,-4.918265 -0.0727,-5.525651 -0.26648,-8.381921 -0.26648,-8.381921 0,0 -0.0692,-2.790858 -6.86987,-2.242654 -6.80064,0.548204 -48.92653,-0.773716 -52.09325,0.426727 z"
       id="path4618"
       sodipodi:nodetypes="cscscscsc" />
    <path
       id="path4620"
       style="fill:#66547a;stroke:none;stroke-width:0.198888px;stroke-linecap:butt;stroke-linejoin:miter;stroke-opacity:1"
       d="m 219.62,51.84434 c 0.56217,0.824185 0.78911,1.833753 -0.92708,2.307867 -1.2223,0.337672 -56.57512,0.292762 -58.08431,0.05426 -1.63689,-0.25868 -1.42896,-1.269452 -1.06246,-1.970421 -0.46177,0.595117 -0.78359,1.349166 -0.87282,2.123901 -0.13871,1.204306 0.20412,8.453747 0.20412,8.453747 0,0 -0.0659,3.45441 3.09387,3.716051 3.15979,0.261644 55.09741,-0.336412 55.09741,-0.336412 0,0 3.45026,0.607089 3.37757,-4.918562 -0.0727,-5.525653 -0.26613,-8.381918 -0.26613,-8.381918 0,0 -0.0176,-0.508553 -0.56017,-1.048514 z" />
    <path
       style="fill:#a689c7;stroke:none;stroke-width:0.198888px;stroke-linecap:butt;stroke-linejoin:miter;stroke-opacity:1"
       d="m 163.24492,51.369867 c 1.40166,-0.230495 53.76141,-0.358202 53.76141,-0.358202 0,0 2.26342,0.411155 2.65104,1.339363 0.38762,0.92821 -1.7962,0.22115 -1.7962,0.22115 0,0 -1.52972,-0.738205 -3.00058,-0.719518 -1.47088,0.0187 -51.74372,0.504598 -51.74372,0.504598 0,0 -2.831,-0.221152 0.12805,-0.987391 z"
       id="path4622" />
    <rect
       style="fill:#40477a;stroke:#715d87;stroke-width:0.264583"
       id="rect4726"
       width="132.6524"
       height="8.1920185"
       x="40.348255"
       y="138.13181"
       ry="0" />
    <ellipse
       style="fill:#40477a;stroke:#1e223b;stroke-width:0.26753"
       id="ellipse6059"
       cx="76.905327"
       cy="134.19998"
       rx="1.9460473"
       ry="4.9477172" />
    <rect
       style="fill:#40477a;stroke:none;stroke-width:0.264583"
       id="rect4832"
       width="7.5644903"
       height="9.6195097"
       x="69.450012"
       y="129.37561" />
    <ellipse
       style="fill:#40477a;stroke:#1e223b;stroke-width:0.26753"
       id="path4702-6"
       cx="61.889015"
       cy="134.1692"
       rx="1.9460473"
       ry="4.9477172" />
    <g
       id="g704"
       transform="translate(-10.853249,19.12239)">
      <circle
         style="fill:#40477a;stroke:none;stroke-width:0.264583"
         id="path5810"
         cx="151.78185"
         cy="104.87526"
         r="5.115799" />
      <circle
         style="fill:#40477a;stroke:#31283b;stroke-width:0.264583"
         id="path5812"
         cx="151.6985"
         cy="104.75804"
         r="3.3753724" />
    </g>
    <ellipse
       style="fill:#40477a;stroke:#1e223b;stroke-width:0.26753"
       id="ellipse6057"
       cx="69.473679"
       cy="134.1758"
       rx="1.9460473"
       ry="4.9477172" />
    <rect
       style="fill:#40477a;stroke:none;stroke-width:0.264583"
       id="rect6055"
       width="7.5644903"
       height="9.6195097"
       x="61.885521"
       y="129.37561" />
    <g
       id="g700"
       transform="translate(-7.5800466,25.49652)">
      <g
         id="g1067"
         transform="translate(43.591315,-48.472547)">
        <rect
           style="fill:#40477a;stroke:none;stroke-width:0.228133"
           id="rect1058"
           width="7.5644903"
           height="7.1516056"
           x="75.94548"
           y="145.30336" />
        <path
           style="fill:none;stroke:#1e223b;stroke-width:0.264583px;stroke-linecap:butt;stroke-linejoin:miter;stroke-opacity:1"
           d="m 75.945477,145.29739 h 7.564491"
           id="path1060" />
        <path
           style="fill:none;stroke:#1e223b;stroke-width:0.264583px;stroke-linecap:butt;stroke-linejoin:miter;stroke-opacity:1"
           d="m 75.945478,152.45496 h 7.564491"
           id="path1062" />
      </g>
      <g
         id="g1081"
         transform="translate(43.591315,-48.472547)">
        <ellipse
           style="fill:#40477a;stroke:#1e223b;stroke-width:0.0929745"
           id="ellipse6642"
           cx="76.493896"
           cy="148.91669"
           rx="0.23096168"
           ry="5.0349951" />
        <rect
           style="fill:#40477a;stroke:none;stroke-width:0.264583"
           id="rect6383"
           width="7.5644903"
           height="9.6195097"
           x="68.930748"
           y="144.1165" />
        <ellipse
           style="fill:#40477a;stroke:#1e223b;stroke-width:0.0929745"
           id="ellipse6387"
           cx="68.888077"
           cy="148.91669"
           rx="0.23096168"
           ry="5.0349951" />
        <path
           style="fill:#1e223b;stroke:none;stroke-width:0.210512px;stroke-linecap:butt;stroke-linejoin:miter;stroke-opacity:1"
           d="m 69.023885,144.65968 h 7.615587 l 0.0024,0.25805 H 69.07105 Z"
           id="path6757" />
        <path
           style="fill:#1e223b;stroke:none;stroke-width:0.264583px;stroke-linecap:butt;stroke-linejoin:miter;stroke-opacity:1"
           d="m 69.070666,145.6928 h 7.615587 l 0.0024,0.40764 h -7.570822 z"
           id="path6971" />
        <path
           style="fill:#1e223b;stroke:none;stroke-width:0.324141px;stroke-linecap:butt;stroke-linejoin:miter;stroke-opacity:1"
           d="m 69.098333,146.95939 h 7.615587 l 0.0024,0.61182 h -7.570822 z"
           id="path6973" />
        <path
           style="fill:#1e223b;stroke:none;stroke-width:0.356923px;stroke-linecap:butt;stroke-linejoin:miter;stroke-opacity:1"
           d="m 69.093048,148.50801 h 7.615587 l 0.0024,0.74183 h -7.570822 z"
           id="path6977" />
        <path
           style="fill:#1e223b;stroke:none;stroke-width:0.324516px;stroke-linecap:butt;stroke-linejoin:miter;stroke-opacity:1"
           d="m 69.091215,150.25696 h 7.615587 l 0.0024,0.61323 H 69.13838 Z"
           id="path6981" />
        <path
           style="fill:#1e223b;stroke:none;stroke-width:0.224848px;stroke-linecap:butt;stroke-linejoin:miter;stroke-opacity:1"
           d="m 69.064419,152.20426 h 7.615587 l 0.0024,-0.2944 h -7.570822 z"
           id="path6983" />
        <path
           style="fill:#1e223b;stroke:none;stroke-width:0.163844px;stroke-linecap:butt;stroke-linejoin:miter;stroke-opacity:1"
           d="m 69.009571,153.2772 h 7.615587 l 0.0024,-0.15632 h -7.570822 z"
           id="path6985" />
        <path
           style="fill:none;stroke:#1e223b;stroke-width:0.0874963px;stroke-linecap:butt;stroke-linejoin:miter;stroke-opacity:1"
           d="m 68.93021,153.77241 c 0,0 5.151654,-8.9e-4 7.529773,0"
           id="path357"
           sodipodi:nodetypes="cc" />
        <path
           style="fill:none;stroke:#1e223b;stroke-width:0.0874963px;stroke-linecap:butt;stroke-linejoin:miter;stroke-opacity:1"
           d="m 68.930748,144.1165 c 0,0 5.151654,-8.9e-4 7.529773,0"
           id="path965"
           sodipodi:nodetypes="cc" />
      </g>
      <g
         id="g1086"
         transform="translate(43.591315,-48.472547)">
        <rect
           style="fill:#40477a;stroke:none;stroke-width:0.228133"
           id="rect6389"
           width="7.5644903"
           height="7.1516056"
           x="61.306843"
           y="145.29739" />
        <path
           style="fill:none;stroke:#1e223b;stroke-width:0.264583px;stroke-linecap:butt;stroke-linejoin:miter;stroke-opacity:1"
           d="m 61.306844,145.29143 h 7.564491"
           id="path6504" />
        <path
           style="fill:none;stroke:#1e223b;stroke-width:0.264583px;stroke-linecap:butt;stroke-linejoin:miter;stroke-opacity:1"
           d="m 61.306845,152.449 h 7.564491"
           id="path6506" />
      </g>
    </g>
  </g>
</svg>
